<svg width="151" height="154" viewBox="0 0 151 154" fill="none" xmlns="http://www.w3.org/2000/svg">
<path d="M19 116C29.4934 116 38 124.507 38 135C38 135.211 37.9951 135.422 37.9883 135.632C37.9864 135.689 37.9838 135.746 37.9814 135.804C37.9745 135.972 37.9654 136.139 37.9541 136.306C37.9508 136.355 37.948 136.403 37.9443 136.452C37.9289 136.657 37.9096 136.86 37.8877 137.062C37.8832 137.104 37.8788 137.145 37.874 137.187C37.8257 137.608 37.7639 138.026 37.6885 138.438C37.6801 138.484 37.6708 138.53 37.6621 138.575C37.6296 138.746 37.5947 138.916 37.5576 139.085C37.5493 139.123 37.5418 139.161 37.5332 139.199C37.4874 139.402 37.438 139.604 37.3857 139.805C37.3799 139.827 37.3731 139.849 37.3672 139.871C37.317 140.061 37.2648 140.249 37.209 140.437C37.2012 140.463 37.1934 140.489 37.1855 140.515C37.0619 140.923 36.9244 141.325 36.7744 141.722C36.7643 141.748 36.7544 141.775 36.7441 141.802C36.5932 142.195 36.4298 142.582 36.2539 142.963C36.2412 142.99 36.2286 143.018 36.2158 143.045C36.0363 143.428 35.8445 143.805 35.6406 144.174C35.6362 144.182 35.6324 144.19 35.6279 144.198C32.3878 150.043 26.1563 154 19 154C8.50659 154 0 145.493 0 135C0 125.883 6.42203 118.266 14.9893 116.425C14.9984 116.423 15.0075 116.421 15.0166 116.419C15.1596 116.388 15.3031 116.359 15.4473 116.332C15.4629 116.329 15.4785 116.326 15.4941 116.323C15.6281 116.298 15.7626 116.275 15.8975 116.253C15.9316 116.247 15.9658 116.242 16 116.236C16.124 116.217 16.2483 116.198 16.373 116.181C16.4137 116.175 16.4544 116.169 16.4951 116.164C16.7954 116.125 17.0979 116.093 17.4023 116.067C17.4297 116.065 17.457 116.062 17.4844 116.06C17.6285 116.048 17.773 116.038 17.918 116.03C17.9388 116.029 17.9596 116.027 17.9805 116.026C18.318 116.009 18.658 116 19 116Z" fill="url(#paint0_linear_319_42)"/>
<path fill-rule="evenodd" clip-rule="evenodd" d="M41.54 44.0293H83.6787L92.1484 55.4814L93.0488 56.707L93.0518 56.7031L109.883 79.46C108.584 81.0404 107.519 82.8172 106.69 84.791C105.596 87.3971 105.05 90.175 105.05 93.124V153.818L84.0029 154H62.7715C56.002 154 49.6423 152.731 43.6934 150.193C42.457 149.652 41.2534 149.067 40.0791 148.445C42.5607 144.563 44 139.95 44 135C44 121.193 32.8071 110 19 110C17.2729 110 15.5865 110.174 13.958 110.508C13.7467 108.614 13.6416 106.686 13.6416 104.724V72.0107H0V44.0293H13.6416V0H41.54V44.0293ZM41.54 104.724C41.54 107.673 42.0867 110.451 43.1807 113.057C44.2747 115.594 45.7797 117.823 47.6943 119.743C49.6089 121.663 51.8655 123.207 54.4639 124.373C57.0621 125.47 59.8314 126.019 62.7715 126.019H77.0488V72.0107H41.54V104.724Z" fill="url(#paint1_linear_319_42)"/>
<path d="M151 71.8291H126.281C123.341 71.8291 120.572 72.3784 117.974 73.4756C116.663 74.0292 115.438 74.6871 114.302 75.4502L97.6348 53.0088C100.954 50.6486 104.553 48.7262 108.435 47.2432C114.178 44.98 120.127 43.8477 126.281 43.8477H151V71.8291Z" fill="url(#paint2_linear_319_42)"/>
<defs>
<linearGradient id="paint0_linear_319_42" x1="0" y1="77.0371" x2="520.931" y2="77.0371" gradientUnits="userSpaceOnUse">
<stop stop-color="#006A97"/>
<stop offset="1" stop-color="#009AD7"/>
</linearGradient>
<linearGradient id="paint1_linear_319_42" x1="0" y1="77.0371" x2="520.931" y2="77.0371" gradientUnits="userSpaceOnUse">
<stop stop-color="#006A97"/>
<stop offset="1" stop-color="#009AD7"/>
</linearGradient>
<linearGradient id="paint2_linear_319_42" x1="0" y1="77.0371" x2="520.931" y2="77.0371" gradientUnits="userSpaceOnUse">
<stop stop-color="#006A97"/>
<stop offset="1" stop-color="#009AD7"/>
</linearGradient>
</defs>
</svg>

